<svg xmlns="http://www.w3.org/2000/svg" xmlns:xlink="http://www.w3.org/1999/xlink" width="500" zoomAndPan="magnify" viewBox="0 0 375 374.999991" height="500" preserveAspectRatio="xMidYMid meet" version="1.0"><defs><g/><clipPath id="b910bda00f"><path d="M 159.671875 305.664062 L 186.402344 305.664062 L 186.402344 320.390625 L 159.671875 320.390625 Z M 159.671875 305.664062 " clip-rule="nonzero"/></clipPath><clipPath id="87d8180685"><path d="M 218 298 L 243.421875 298 L 243.421875 314 L 218 314 Z M 218 298 " clip-rule="nonzero"/></clipPath><clipPath id="47f51a58a0"><path d="M 131.671875 301 L 158 301 L 158 316 L 131.671875 316 Z M 131.671875 301 " clip-rule="nonzero"/></clipPath></defs><path fill="#58b87a" d="M 214.808594 311.566406 C 211.15625 312.003906 208.230469 312.4375 204.597656 311.40625 C 200.667969 310.289062 197.703125 307.648438 194.28125 305.617188 C 193.125 304.933594 192.1875 306.425781 192.9375 307.355469 C 195.917969 311.058594 201.480469 314.511719 206.917969 315.335938 C 205.574219 315.816406 204.167969 316.191406 202.597656 316.351562 C 197.480469 316.878906 193.589844 314.875 191.199219 310.382812 C 190.609375 309.285156 189.117188 310.085938 189.308594 311.179688 C 190.285156 316.722656 195.464844 319.089844 200.578125 319.496094 C 205.191406 319.863281 212.695312 318.238281 215.347656 313.890625 C 215.371094 313.871094 215.402344 313.863281 215.425781 313.847656 C 216.355469 313.25 216.105469 311.410156 214.808594 311.566406 " fill-opacity="1" fill-rule="nonzero"/><g clip-path="url(#b910bda00f)"><path fill="#58b87a" d="M 184.40625 310.539062 C 182.234375 315.332031 178.675781 317.21875 173.476562 317.28125 C 171.808594 317.300781 170.292969 317.019531 168.835938 316.582031 C 174.328125 315.433594 179.796875 311.496094 182.566406 307.515625 C 183.199219 306.609375 181.953125 305.386719 181.050781 306 C 178.191406 307.945312 175.703125 310.203125 172.605469 311.804688 C 168.746094 313.800781 165.125 313.488281 160.964844 313.285156 C 159.730469 313.222656 159.316406 314.976562 160.347656 315.5625 C 160.394531 315.589844 160.445312 315.605469 160.492188 315.632812 C 163.492188 319.90625 170.8125 320.699219 175.492188 320.296875 C 180.777344 319.839844 185.714844 316.613281 186.332031 311.0625 C 186.445312 310.054688 184.820312 309.625 184.40625 310.539062 " fill-opacity="1" fill-rule="nonzero"/></g><path fill="#58b87a" d="M 196.746094 267.761719 C 198.386719 265.363281 199.730469 262.808594 201.179688 260.296875 C 201.71875 259.355469 201 260.292969 202.242188 261.386719 C 203.664062 262.640625 204.617188 264.503906 205.507812 266.148438 C 210.089844 274.632812 203.179688 282.359375 199.578125 289.480469 C 199.027344 290.574219 200.183594 291.96875 201.339844 291.242188 C 207.535156 287.335938 210.46875 277.828125 210.304688 270.871094 C 210.203125 266.570312 206.230469 257.671875 201.03125 258.246094 C 200.652344 258.289062 200.4375 258.457031 200.292969 258.808594 C 199.074219 261.757812 197.671875 264.621094 196.34375 267.527344 C 196.222656 267.796875 196.574219 268.011719 196.746094 267.761719 " fill-opacity="1" fill-rule="nonzero"/><path fill="#58b87a" d="M 220.707031 269.625 C 220.824219 270.980469 221.011719 272.277344 220.746094 273.714844 C 220.398438 275.613281 219.371094 277.339844 218.292969 278.90625 C 215.824219 282.480469 211.839844 284.382812 207.761719 285.410156 C 206.433594 285.742188 206.363281 287.867188 207.761719 288.15625 C 212.941406 289.222656 218.085938 285.617188 220.988281 281.542969 C 223.507812 278.003906 226.097656 271.28125 222.195312 267.707031 C 221.871094 267.40625 221.476562 267.378906 221.085938 267.5625 C 219.300781 268.394531 217.382812 269.007812 215.488281 269.53125 C 214.214844 269.882812 213.09375 269.660156 211.945312 270.234375 C 211.800781 270.304688 211.808594 270.492188 211.898438 270.601562 C 213.710938 272.75 218.039062 270.664062 220.707031 269.625 " fill-opacity="1" fill-rule="nonzero"/><path fill="#58b87a" d="M 208.292969 292.257812 C 201.980469 292.785156 198.128906 297.320312 194.515625 301.972656 C 194.195312 302.378906 194.589844 303.039062 195.101562 302.734375 C 197.742188 301.152344 199.941406 299.03125 202.507812 297.324219 C 206.972656 294.34375 213.144531 295.734375 218.144531 295.902344 C 222.832031 296.054688 228.191406 293.6875 232.210938 290.542969 C 227.78125 300.511719 217.421875 307.09375 206.121094 306.265625 C 205.183594 306.199219 205.074219 307.582031 205.90625 307.84375 C 212.851562 310.015625 220.648438 307.011719 226.179688 302.722656 C 230.796875 299.136719 236.695312 293.167969 235.929688 286.730469 C 236.15625 285.867188 235.515625 284.871094 234.460938 285.175781 C 231.265625 286.089844 228.867188 287.964844 226.019531 289.660156 C 220.398438 293.003906 214.417969 291.75 208.292969 292.257812 " fill-opacity="1" fill-rule="nonzero"/><path fill="#58b87a" d="M 220.121094 286.179688 C 223.027344 285.71875 227.304688 285.261719 229.113281 282.945312 C 230.597656 281.035156 230.171875 277.480469 227.984375 275.039062 C 227.539062 276.867188 226.691406 278.980469 225.53125 280.902344 C 224.132812 283.21875 222.277344 285.261719 220.121094 286.179688 " fill-opacity="1" fill-rule="nonzero"/><g clip-path="url(#87d8180685)"><path fill="#58b87a" d="M 241.71875 299.042969 C 240.59375 298.734375 239.421875 298.734375 238.246094 298.648438 C 236.867188 298.546875 235.398438 298.109375 234.023438 298.222656 C 233.398438 298.273438 232.925781 299.0625 233.472656 299.554688 C 234.523438 300.492188 236.074219 300.726562 237.429688 300.933594 C 238.054688 301.027344 238.695312 301.113281 239.332031 301.167969 C 237.207031 303.472656 235.453125 305.960938 232.636719 307.859375 C 228.289062 310.785156 224.0625 311.257812 219.007812 310.878906 C 218.628906 310.851562 218.386719 311.40625 218.6875 311.652344 C 225.71875 317.429688 242.207031 308.363281 243.199219 300.078125 C 243.300781 299.210938 242.414062 298.855469 241.71875 299.042969 " fill-opacity="1" fill-rule="nonzero"/></g><path fill="#58b87a" d="M 182.398438 300.203125 C 182.59375 300.367188 182.90625 300.160156 182.761719 299.921875 C 178.492188 292.753906 175.765625 286.800781 177.671875 278.285156 C 178.992188 272.40625 183.070312 268.457031 186.296875 263.746094 C 189.203125 267.441406 192.433594 270.660156 194.707031 274.929688 C 199.304688 283.570312 196.222656 291.613281 192.132812 299.613281 C 192.011719 299.847656 192.300781 300.082031 192.496094 299.894531 C 203.6875 289.210938 201.179688 268.113281 187.152344 260.804688 C 186.875 260.664062 186.566406 260.644531 186.269531 260.714844 C 185.96875 260.628906 185.636719 260.640625 185.320312 260.824219 C 171.6875 268.84375 170.5625 290.328125 182.398438 300.203125 " fill-opacity="1" fill-rule="nonzero"/><path fill="#58b87a" d="M 172.960938 292.105469 C 174.078125 292.714844 175.390625 291.484375 174.722656 290.34375 C 170.089844 282.472656 163.375 275.8125 167.863281 266.066406 C 168.660156 264.339844 169.804688 262.835938 171.140625 261.5 C 171.207031 261.433594 171.226562 261.347656 171.226562 261.253906 C 172.824219 263.6875 174.347656 266.15625 176.148438 268.449219 C 176.316406 268.664062 176.632812 268.390625 176.511719 268.167969 C 174.976562 265.308594 173.375 262.488281 171.945312 259.574219 C 171.824219 259.328125 171.542969 259.207031 171.289062 259.195312 C 165.742188 258.921875 163.113281 267.960938 162.785156 272.277344 C 162.277344 278.941406 167.035156 288.882812 172.960938 292.105469 " fill-opacity="1" fill-rule="nonzero"/><path fill="#58b87a" d="M 166.339844 289.5 C 167.625 289.144531 167.777344 287.015625 166.339844 286.753906 C 162.316406 286.019531 158.964844 284.535156 156.015625 281.652344 C 154.574219 280.246094 153.511719 278.464844 152.777344 276.597656 C 152.128906 274.960938 152.296875 273.425781 152.332031 271.808594 C 155.066406 272.679688 159.710938 274.519531 161.207031 272.183594 C 161.273438 272.082031 161.234375 271.917969 161.125 271.863281 C 159.878906 271.269531 158.371094 271.535156 157.011719 271.285156 C 155.214844 270.953125 153.34375 270.390625 151.648438 269.703125 C 151.355469 269.585938 150.960938 269.726562 150.753906 269.941406 C 147.347656 273.425781 149.679688 279.679688 152.203125 282.945312 C 155.394531 287.074219 160.882812 291.007812 166.339844 289.5 " fill-opacity="1" fill-rule="nonzero"/><path fill="#58b87a" d="M 148.539062 304.90625 C 154.324219 309.050781 162.589844 311.632812 169.480469 309.015625 C 170.464844 308.644531 170.070312 307.328125 169.054688 307.46875 C 157.933594 309.015625 147.121094 302.992188 142.132812 293.355469 C 145.699219 295.8125 150.203125 297.730469 154.011719 297.816406 C 158.144531 297.90625 162.136719 297.058594 166.261719 296.890625 C 171.964844 296.660156 175.472656 300.769531 179.960938 303.203125 C 180.457031 303.46875 180.917969 302.847656 180.550781 302.441406 C 176.640625 298.097656 172.589844 293.722656 166.261719 293.601562 C 161.511719 293.507812 156.972656 294.480469 152.234375 293.59375 C 147.625 292.730469 144.210938 289.214844 139.671875 288.222656 C 138.609375 287.988281 137.796875 289.054688 138.21875 289.945312 C 137.851562 296.207031 143.953125 301.628906 148.539062 304.90625 " fill-opacity="1" fill-rule="nonzero"/><path fill="#58b87a" d="M 153.96875 288.285156 C 151.757812 287.507812 149.777344 285.59375 148.230469 283.371094 C 146.949219 281.527344 145.96875 279.46875 145.410156 277.675781 C 143.382812 280.246094 143.179688 283.824219 144.789062 285.636719 C 146.734375 287.832031 151.039062 288.015625 153.96875 288.285156 " fill-opacity="1" fill-rule="nonzero"/><g clip-path="url(#47f51a58a0)"><path fill="#58b87a" d="M 156.558594 312.882812 C 151.667969 313.605469 147.976562 313.273438 143.460938 311.046875 C 140.160156 309.421875 138.125 306.824219 135.691406 304.46875 C 136.148438 304.402344 136.605469 304.324219 137.066406 304.238281 C 138.527344 303.96875 140.382812 303.625 141.460938 302.523438 C 141.945312 302.035156 141.589844 301.203125 140.910156 301.191406 C 139.601562 301.167969 138.222656 301.636719 136.933594 301.855469 C 135.671875 302.066406 134.441406 302.128906 133.253906 302.511719 C 132.46875 302.3125 131.664062 302.894531 131.859375 303.863281 C 132.808594 308.636719 139.210938 312.171875 143.230469 314.007812 C 147.296875 315.867188 153.382812 316.953125 157 313.640625 C 157.367188 313.300781 156.964844 312.824219 156.558594 312.882812 " fill-opacity="1" fill-rule="nonzero"/></g><g fill="#075047" fill-opacity="1"><g transform="translate(74.796207, 363.946496)"><g><path d="M 17.546875 0.203125 C 12.253906 0.203125 8.207031 -1.015625 5.40625 -3.453125 C 2.601562 -5.898438 1.203125 -9.53125 1.203125 -14.34375 C 1.203125 -19.125 2.601562 -22.742188 5.40625 -25.203125 C 8.207031 -27.660156 12.253906 -28.875 17.546875 -28.84375 L 31.96875 -28.765625 L 31.96875 -23.640625 L 17.984375 -23.640625 C 14.515625 -23.640625 11.9375 -22.90625 10.25 -21.4375 C 8.570312 -19.96875 7.734375 -17.601562 7.734375 -14.34375 C 7.734375 -11.082031 8.570312 -8.707031 10.25 -7.21875 C 11.9375 -5.738281 14.515625 -5 17.984375 -5 L 32.375 -5 L 32.375 0.203125 Z M 17.546875 0.203125 "/></g></g></g><g fill="#075047" fill-opacity="1"><g transform="translate(108.367837, 363.946496)"><g><path d="M 2.796875 0 L 2.796875 -28.640625 L 34.21875 -28.640625 L 34.21875 -23.4375 L 9.21875 -23.4375 L 9.21875 -17.109375 L 31.890625 -17.109375 L 31.890625 -11.90625 L 9.21875 -11.90625 L 9.21875 -5.203125 L 34.21875 -5.203125 L 34.21875 0 Z M 2.796875 0 "/></g></g></g><g fill="#075047" fill-opacity="1"><g transform="translate(144.182918, 363.946496)"><g><path d="M 1.890625 0.203125 L 1.890625 -5 L 24.921875 -4.96875 C 26.097656 -4.96875 27 -5.238281 27.625 -5.78125 C 28.25 -6.332031 28.5625 -7.222656 28.5625 -8.453125 C 28.5625 -9.679688 28.25 -10.566406 27.625 -11.109375 C 27 -11.660156 26.097656 -11.9375 24.921875 -11.9375 L 10.578125 -11.9375 C 7.609375 -11.9375 5.300781 -12.648438 3.65625 -14.078125 C 2.019531 -15.503906 1.203125 -17.609375 1.203125 -20.390625 C 1.203125 -23.171875 2.019531 -25.273438 3.65625 -26.703125 C 5.300781 -28.128906 7.609375 -28.84375 10.578125 -28.84375 L 33.09375 -28.84375 L 33.09375 -23.640625 L 11.25 -23.671875 C 10.101562 -23.671875 9.207031 -23.410156 8.5625 -22.890625 C 7.925781 -22.367188 7.609375 -21.535156 7.609375 -20.390625 C 7.609375 -19.242188 7.925781 -18.410156 8.5625 -17.890625 C 9.207031 -17.367188 10.101562 -17.109375 11.25 -17.109375 L 25.59375 -17.109375 C 28.5625 -17.109375 30.863281 -16.378906 32.5 -14.921875 C 34.144531 -13.460938 34.96875 -11.304688 34.96875 -8.453125 C 34.96875 -5.617188 34.144531 -3.46875 32.5 -2 C 30.863281 -0.53125 28.5625 0.203125 25.59375 0.203125 Z M 1.890625 0.203125 "/></g></g></g><g fill="#075047" fill-opacity="1"><g transform="translate(180.358551, 363.946496)"><g><path d="M 2.796875 0 L 2.796875 -28.640625 L 9.21875 -28.640625 L 9.21875 0 Z M 2.796875 0 "/></g></g></g><g fill="#075047" fill-opacity="1"><g transform="translate(192.377033, 363.946496)"><g><path d="M 1.203125 0 L 1.203125 -4.84375 L 22.71875 -23.359375 L 2.125 -23.359375 L 2.125 -28.5625 L 32.015625 -28.5625 L 32.015625 -23.71875 L 10.453125 -5.203125 L 31.9375 -5.203125 L 31.9375 0 Z M 1.203125 0 "/></g></g></g><g fill="#075047" fill-opacity="1"><g transform="translate(225.588111, 363.946496)"><g><path d="M 2.796875 0 L 2.796875 -28.640625 L 34.21875 -28.640625 L 34.21875 -23.4375 L 9.21875 -23.4375 L 9.21875 -17.109375 L 31.890625 -17.109375 L 31.890625 -11.90625 L 9.21875 -11.90625 L 9.21875 -5.203125 L 34.21875 -5.203125 L 34.21875 0 Z M 2.796875 0 "/></g></g></g><g fill="#075047" fill-opacity="1"><g transform="translate(261.403192, 363.946496)"><g><path d="M 2.796875 0 L 2.796875 -28.640625 L 9.296875 -28.640625 L 29.5625 -8.046875 L 29.5625 -28.640625 L 35.96875 -28.640625 L 35.96875 0 L 29.484375 0 L 9.21875 -20.625 L 9.21875 0 Z M 2.796875 0 "/></g></g></g></svg>