<svg xmlns="http://www.w3.org/2000/svg" xmlns:xlink="http://www.w3.org/1999/xlink" width="500" zoomAndPan="magnify" viewBox="0 0 375 374.999991" height="500" preserveAspectRatio="xMidYMid meet" version="1.0"><defs><g/></defs><g fill="#075047" fill-opacity="1"><g transform="translate(74.796207, 200.452248)"><g><path d="M 17.546875 0.203125 C 12.253906 0.203125 8.207031 -1.015625 5.40625 -3.453125 C 2.601562 -5.898438 1.203125 -9.53125 1.203125 -14.34375 C 1.203125 -19.125 2.601562 -22.742188 5.40625 -25.203125 C 8.207031 -27.660156 12.253906 -28.875 17.546875 -28.84375 L 31.96875 -28.765625 L 31.96875 -23.640625 L 17.984375 -23.640625 C 14.515625 -23.640625 11.9375 -22.90625 10.25 -21.4375 C 8.570312 -19.96875 7.734375 -17.601562 7.734375 -14.34375 C 7.734375 -11.082031 8.570312 -8.707031 10.25 -7.21875 C 11.9375 -5.738281 14.515625 -5 17.984375 -5 L 32.375 -5 L 32.375 0.203125 Z M 17.546875 0.203125 "/></g></g></g><g fill="#075047" fill-opacity="1"><g transform="translate(108.367837, 200.452248)"><g><path d="M 2.796875 0 L 2.796875 -28.640625 L 34.21875 -28.640625 L 34.21875 -23.4375 L 9.21875 -23.4375 L 9.21875 -17.109375 L 31.890625 -17.109375 L 31.890625 -11.90625 L 9.21875 -11.90625 L 9.21875 -5.203125 L 34.21875 -5.203125 L 34.21875 0 Z M 2.796875 0 "/></g></g></g><g fill="#075047" fill-opacity="1"><g transform="translate(144.182918, 200.452248)"><g><path d="M 1.890625 0.203125 L 1.890625 -5 L 24.921875 -4.96875 C 26.097656 -4.96875 27 -5.238281 27.625 -5.78125 C 28.25 -6.332031 28.5625 -7.222656 28.5625 -8.453125 C 28.5625 -9.679688 28.25 -10.566406 27.625 -11.109375 C 27 -11.660156 26.097656 -11.9375 24.921875 -11.9375 L 10.578125 -11.9375 C 7.609375 -11.9375 5.300781 -12.648438 3.65625 -14.078125 C 2.019531 -15.503906 1.203125 -17.609375 1.203125 -20.390625 C 1.203125 -23.171875 2.019531 -25.273438 3.65625 -26.703125 C 5.300781 -28.128906 7.609375 -28.84375 10.578125 -28.84375 L 33.09375 -28.84375 L 33.09375 -23.640625 L 11.25 -23.671875 C 10.101562 -23.671875 9.207031 -23.410156 8.5625 -22.890625 C 7.925781 -22.367188 7.609375 -21.535156 7.609375 -20.390625 C 7.609375 -19.242188 7.925781 -18.410156 8.5625 -17.890625 C 9.207031 -17.367188 10.101562 -17.109375 11.25 -17.109375 L 25.59375 -17.109375 C 28.5625 -17.109375 30.863281 -16.378906 32.5 -14.921875 C 34.144531 -13.460938 34.96875 -11.304688 34.96875 -8.453125 C 34.96875 -5.617188 34.144531 -3.46875 32.5 -2 C 30.863281 -0.53125 28.5625 0.203125 25.59375 0.203125 Z M 1.890625 0.203125 "/></g></g></g><g fill="#075047" fill-opacity="1"><g transform="translate(180.358551, 200.452248)"><g><path d="M 2.796875 0 L 2.796875 -28.640625 L 9.21875 -28.640625 L 9.21875 0 Z M 2.796875 0 "/></g></g></g><g fill="#075047" fill-opacity="1"><g transform="translate(192.377033, 200.452248)"><g><path d="M 1.203125 0 L 1.203125 -4.84375 L 22.71875 -23.359375 L 2.125 -23.359375 L 2.125 -28.5625 L 32.015625 -28.5625 L 32.015625 -23.71875 L 10.453125 -5.203125 L 31.9375 -5.203125 L 31.9375 0 Z M 1.203125 0 "/></g></g></g><g fill="#075047" fill-opacity="1"><g transform="translate(225.588111, 200.452248)"><g><path d="M 2.796875 0 L 2.796875 -28.640625 L 34.21875 -28.640625 L 34.21875 -23.4375 L 9.21875 -23.4375 L 9.21875 -17.109375 L 31.890625 -17.109375 L 31.890625 -11.90625 L 9.21875 -11.90625 L 9.21875 -5.203125 L 34.21875 -5.203125 L 34.21875 0 Z M 2.796875 0 "/></g></g></g><g fill="#075047" fill-opacity="1"><g transform="translate(261.403192, 200.452248)"><g><path d="M 2.796875 0 L 2.796875 -28.640625 L 9.296875 -28.640625 L 29.5625 -8.046875 L 29.5625 -28.640625 L 35.96875 -28.640625 L 35.96875 0 L 29.484375 0 L 9.21875 -20.625 L 9.21875 0 Z M 2.796875 0 "/></g></g></g></svg>